<svg version="1.1" id="Layer_1" xmlns="http://www.w3.org/2000/svg" xmlns:xlink="http://www.w3.org/1999/xlink" x="0px" y="0px"
	 width="100%" viewBox="0 0 2561 2561" enable-background="new 0 0 2561 2561" xml:space="preserve">
<path fill="#9153CB" opacity="1.000000" stroke="none" 
	d="
M1232.000000,2564.000000 
	C821.333313,2564.000000 411.666656,2564.000000 2.000000,2564.000000 
	C2.000000,1710.000000 2.000000,856.000000 2.000000,2.000000 
	C856.000000,2.000000 1710.000000,2.000000 2564.000000,2.000000 
	C2564.000000,856.000000 2564.000000,1710.000000 2564.000000,2564.000000 
	C2120.333252,2564.000000 1676.666626,2564.000000 1232.000000,2564.000000 
M2127.000000,1811.535400 
	C2148.645752,1811.087646 2170.349854,1811.500732 2191.926270,1810.032471 
	C2259.692383,1805.421265 2320.991211,1782.129639 2373.598145,1739.609497 
	C2474.409668,1658.127563 2517.593018,1551.703491 2501.201172,1423.162598 
	C2489.395020,1330.581665 2444.298096,1255.629883 2370.194580,1198.774780 
	C2319.560059,1159.925903 2262.083984,1137.667358 2198.465332,1131.654785 
	C2186.613281,1130.534668 2174.705811,1130.003418 2161.710449,1129.125122 
	C2165.840088,1032.995361 2143.041016,944.480225 2087.452393,865.663513 
	C2031.879028,786.868408 1957.441040,733.634277 1864.874756,706.781433 
	C1789.468140,684.906555 1713.400391,684.842896 1638.068970,707.009277 
	C1525.392700,740.164490 1442.210693,810.320801 1386.068481,913.013123 
	C1313.272095,858.899963 1236.807617,850.141235 1155.627197,890.476196 
	C1064.027222,946.185791 1033.651367,1027.463257 1055.823364,1130.824707 
	C1053.196533,1131.275146 1050.951660,1131.792969 1048.677490,1132.030762 
	C991.167908,1138.046021 938.440674,1157.330566 891.117798,1190.434082 
	C771.185242,1274.329346 718.348877,1419.738647 757.108032,1562.393677 
	C797.071228,1709.480347 931.484680,1811.506836 1084.157471,1811.523438 
	C1431.104980,1811.561279 1778.052490,1811.535278 2127.000000,1811.535400 
M320.358490,906.662354 
	C329.157806,1088.598022 337.957153,1270.533813 346.780823,1452.972900 
	C427.147034,1452.972900 506.321686,1452.972900 585.353455,1452.972900 
	C588.114807,1444.193970 624.894226,634.568787 622.969849,624.831604 
	C518.271545,624.831604 413.470367,624.831604 307.656433,624.831604 
	C307.656433,628.306702 307.552002,631.210999 307.672943,634.106018 
	C308.632721,657.080688 309.553864,680.057434 310.640228,703.026306 
	C313.820465,770.265869 317.071747,837.502075 320.358490,906.662354 
M297.775696,1766.943604 
	C294.008453,1789.913330 294.617920,1812.811401 300.103302,1835.388672 
	C329.961731,1958.283081 470.050629,2006.405640 566.176758,1934.790527 
	C624.497620,1891.340576 645.555115,1830.838013 631.564758,1759.767578 
	C614.417419,1672.660034 529.831970,1607.797729 430.829590,1629.270142 
	C358.161713,1645.031006 314.312836,1692.570679 297.775696,1766.943604 
z"/>
<path fill="#FFFFFF" opacity="1.000000" stroke="none" 
	d="
M2126.000000,1811.535400 
	C1778.052490,1811.535278 1431.104980,1811.561279 1084.157471,1811.523438 
	C931.484680,1811.506836 797.071228,1709.480347 757.108032,1562.393677 
	C718.348877,1419.738647 771.185242,1274.329346 891.117798,1190.434082 
	C938.440674,1157.330566 991.167908,1138.046021 1048.677490,1132.030762 
	C1050.951660,1131.792969 1053.196533,1131.275146 1055.823364,1130.824707 
	C1033.651367,1027.463257 1064.027222,946.185791 1155.627197,890.476196 
	C1236.807617,850.141235 1313.272095,858.899963 1386.068481,913.013123 
	C1442.210693,810.320801 1525.392700,740.164490 1638.068970,707.009277 
	C1713.400391,684.842896 1789.468140,684.906555 1864.874756,706.781433 
	C1957.441040,733.634277 2031.879028,786.868408 2087.452393,865.663513 
	C2143.041016,944.480225 2165.840088,1032.995361 2161.710449,1129.125122 
	C2174.705811,1130.003418 2186.613281,1130.534668 2198.465332,1131.654785 
	C2262.083984,1137.667358 2319.560059,1159.925903 2370.194580,1198.774780 
	C2444.298096,1255.629883 2489.395020,1330.581665 2501.201172,1423.162598 
	C2517.593018,1551.703491 2474.409668,1658.127563 2373.598145,1739.609497 
	C2320.991211,1782.129639 2259.692383,1805.421265 2191.926270,1810.032471 
	C2170.349854,1811.500732 2148.645752,1811.087646 2126.000000,1811.535400 
M1423.819214,1354.786621 
	C1425.894043,1352.191650 1428.292603,1349.791626 1429.990967,1346.970093 
	C1440.825684,1328.971558 1432.728516,1306.890869 1412.953735,1300.836182 
	C1402.896118,1297.756470 1393.501953,1299.708618 1384.119873,1304.655273 
	C1371.202515,1311.465820 1358.111206,1318.262817 1344.433105,1323.253540 
	C1307.256470,1336.818604 1268.436035,1342.809082 1229.128052,1345.857422 
	C1184.729614,1349.300537 1140.526611,1347.327637 1096.632202,1339.937256 
	C1059.371338,1333.663818 1023.005249,1324.442749 990.231018,1304.531494 
	C987.971558,1303.158691 985.485962,1302.081665 982.991394,1301.184204 
	C959.198792,1292.623901 936.340088,1311.306763 940.394653,1336.041016 
	C942.187317,1346.976929 948.518127,1354.509644 958.000061,1360.153564 
	C993.145630,1381.073608 1031.690186,1392.227661 1071.384766,1400.056763 
	C1122.039062,1410.047363 1173.252197,1412.067993 1224.655640,1409.363892 
	C1262.641357,1407.365479 1300.212280,1402.031982 1337.003296,1392.025146 
	C1357.582642,1386.427856 1377.661377,1379.504517 1397.090332,1370.551147 
	C1406.171509,1366.366211 1415.699219,1363.291138 1423.819214,1354.786621 
M2090.437256,1325.670654 
	C2055.406006,1337.099365 2019.305298,1342.880981 1982.697388,1345.791992 
	C1937.643433,1349.374634 1892.773682,1347.373169 1848.237549,1339.815918 
	C1810.989746,1333.495605 1774.665161,1324.094238 1741.943481,1304.112793 
	C1739.972900,1302.909424 1737.771729,1302.024292 1735.589355,1301.236450 
	C1714.921387,1293.775146 1694.288574,1306.366577 1692.632690,1327.939087 
	C1691.573853,1341.733276 1697.465698,1352.310181 1709.528076,1359.566895 
	C1744.862183,1380.823364 1783.686279,1392.248657 1823.733521,1400.007812 
	C1879.037842,1410.723022 1934.838501,1412.544678 1990.922363,1408.305176 
	C2049.498535,1403.877197 2106.112549,1391.700073 2159.458496,1366.274414 
	C2168.059814,1362.174683 2175.621338,1356.910767 2181.137451,1349.117432 
	C2193.809570,1331.213013 2186.495361,1307.734619 2166.052490,1301.037842 
	C2155.677734,1297.639282 2146.063232,1299.816406 2136.302002,1304.828125 
	C2121.846436,1312.250732 2106.747314,1318.420410 2090.437256,1325.670654 
z"/>
<path fill="#FFFEFF" opacity="1.000000" stroke="none" 
	d="
M320.326843,905.700928 
	C317.071747,837.502075 313.820465,770.265869 310.640228,703.026306 
	C309.553864,680.057434 308.632721,657.080688 307.672943,634.106018 
	C307.552002,631.210999 307.656433,628.306702 307.656433,624.831604 
	C413.470367,624.831604 518.271545,624.831604 622.969849,624.831604 
	C624.894226,634.568787 588.114807,1444.193970 585.353455,1452.972900 
	C506.321686,1452.972900 427.147034,1452.972900 346.780823,1452.972900 
	C337.957153,1270.533813 329.157806,1088.598022 320.326843,905.700928 
z"/>
<path fill="#FFFEFF" opacity="1.000000" stroke="none" 
	d="
M297.894287,1766.084351 
	C314.312836,1692.570679 358.161713,1645.031006 430.829590,1629.270142 
	C529.831970,1607.797729 614.417419,1672.660034 631.564758,1759.767578 
	C645.555115,1830.838013 624.497620,1891.340576 566.176758,1934.790527 
	C470.050629,2006.405640 329.961731,1958.283081 300.103302,1835.388672 
	C294.617920,1812.811401 294.008453,1789.913330 297.894287,1766.084351 
z"/>
<path fill="#5B534F" opacity="1.000000" stroke="none" 
	d="
M1423.308472,1355.284668 
	C1415.699219,1363.291138 1406.171509,1366.366211 1397.090332,1370.551147 
	C1377.661377,1379.504517 1357.582642,1386.427856 1337.003296,1392.025146 
	C1300.212280,1402.031982 1262.641357,1407.365479 1224.655640,1409.363892 
	C1173.252197,1412.067993 1122.039062,1410.047363 1071.384766,1400.056763 
	C1031.690186,1392.227661 993.145630,1381.073608 958.000061,1360.153564 
	C948.518127,1354.509644 942.187317,1346.976929 940.394653,1336.041016 
	C936.340088,1311.306763 959.198792,1292.623901 982.991394,1301.184204 
	C985.485962,1302.081665 987.971558,1303.158691 990.231018,1304.531494 
	C1023.005249,1324.442749 1059.371338,1333.663818 1096.632202,1339.937256 
	C1140.526611,1347.327637 1184.729614,1349.300537 1229.128052,1345.857422 
	C1268.436035,1342.809082 1307.256470,1336.818604 1344.433105,1323.253540 
	C1358.111206,1318.262817 1371.202515,1311.465820 1384.119873,1304.655273 
	C1393.501953,1299.708618 1402.896118,1297.756470 1412.953735,1300.836182 
	C1432.728516,1306.890869 1440.825684,1328.971558 1429.990967,1346.970093 
	C1428.292603,1349.791626 1425.894043,1352.191650 1423.308472,1355.284668 
z"/>
<path fill="#5B534F" opacity="1.000000" stroke="none" 
	d="
M2091.179688,1325.396973 
	C2106.747314,1318.420410 2121.846436,1312.250732 2136.302002,1304.828125 
	C2146.063232,1299.816406 2155.677734,1297.639282 2166.052490,1301.037842 
	C2186.495361,1307.734619 2193.809570,1331.213013 2181.137451,1349.117432 
	C2175.621338,1356.910767 2168.059814,1362.174683 2159.458496,1366.274414 
	C2106.112549,1391.700073 2049.498535,1403.877197 1990.922363,1408.305176 
	C1934.838501,1412.544678 1879.037842,1410.723022 1823.733521,1400.007812 
	C1783.686279,1392.248657 1744.862183,1380.823364 1709.528076,1359.566895 
	C1697.465698,1352.310181 1691.573853,1341.733276 1692.632690,1327.939087 
	C1694.288574,1306.366577 1714.921387,1293.775146 1735.589355,1301.236450 
	C1737.771729,1302.024292 1739.972900,1302.909424 1741.943481,1304.112793 
	C1774.665161,1324.094238 1810.989746,1333.495605 1848.237549,1339.815918 
	C1892.773682,1347.373169 1937.643433,1349.374634 1982.697388,1345.791992 
	C2019.305298,1342.880981 2055.406006,1337.099365 2091.179688,1325.396973 
z"/>
</svg>
